<svg width="100" height="34" viewBox="0 0 100 34" fill="none" xmlns="http://www.w3.org/2000/svg">
<g clip-path="url(#clip0)">
<path d="M99.8556 8.32597C99.5817 9.3503 99.298 10.3719 99.0412 11.3998C98.9718 11.6782 98.8439 11.7539 98.5682 11.7521C96.7728 11.7404 94.9763 11.7431 93.1809 11.7476C92.4025 11.7494 91.7728 12.0332 91.3863 12.7476C91.1601 13.1665 91.1745 13.5854 91.5169 13.9116C91.8716 14.2537 92.2611 14.5577 92.6791 14.8188C93.4385 15.2836 94.252 15.6629 95.0007 16.1449C95.6863 16.5863 96.3709 17.0566 96.9565 17.6188C98.0331 18.6521 98.3574 19.9764 98.152 21.4359C98.0106 22.4368 97.6772 23.3782 97.1989 24.2656C96.0358 26.4242 94.1511 27.5125 91.7764 27.6323C89.3358 27.7548 86.8845 27.6854 84.4385 27.6989C84.3682 27.6989 84.298 27.6818 84.1529 27.6629C84.2682 27.2404 84.3736 26.8593 84.4754 26.4773C84.6935 25.6629 84.9214 24.8503 85.1178 24.0296C85.1836 23.7548 85.3007 23.6674 85.5809 23.6692C87.3764 23.6809 89.1727 23.689 90.9682 23.6665C91.5087 23.6612 92.0471 23.599 92.5746 23.4809C93.2926 23.3179 93.6232 22.7647 93.7619 22.0782C93.8782 21.5034 93.589 21.0791 93.1773 20.7665C92.6331 20.3539 92.0412 19.9998 91.4601 19.6368C90.6232 19.1143 89.7448 18.6503 88.9421 18.08C87.9142 17.3521 87.0962 16.4134 86.9196 15.1143C86.8348 14.4707 86.8585 13.8175 86.9899 13.1818C87.7745 9.43228 90.9908 7.84849 93.6331 7.7584C95.68 7.68813 97.7313 7.73948 99.78 7.73858C99.8385 7.73858 99.8971 7.7539 99.9998 7.76831C99.9484 7.96651 99.9034 8.14669 99.8556 8.32597ZM86.1097 11.4305C86.0502 11.6719 85.9457 11.7476 85.6944 11.753C84.552 11.78 83.3953 11.7305 82.2709 11.8962C78.6538 12.4323 75.7718 15.5683 75.5169 19.1377C75.3268 21.8043 77.0034 23.635 79.6818 23.6719C80.7052 23.6863 81.7304 23.6746 82.7547 23.6755H83.2502C83.1115 24.1818 82.9872 24.6287 82.8682 25.0764C82.6673 25.8332 82.4637 26.5899 82.2745 27.3503C82.2151 27.5899 82.125 27.7125 81.8439 27.7071C80.4466 27.68 79.0448 27.7422 77.6529 27.6476C73.9583 27.3971 71.4268 25.0016 71.0935 21.4016C70.8601 18.88 71.5809 16.5692 72.7872 14.4107C74.8863 10.6584 78.1079 8.46111 82.3583 7.89264C83.8412 7.69444 85.3637 7.78183 86.8673 7.74129C86.9241 7.73948 86.9809 7.76741 87.0727 7.78994L86.77 8.91336C86.5475 9.7521 86.3178 10.589 86.1097 11.4305ZM67.6872 27.3043C67.6088 27.6071 67.4926 27.7125 67.1809 27.708C66.0115 27.6908 64.8421 27.7016 63.6727 27.6998C63.5448 27.6998 63.4169 27.6818 63.2358 27.6692L63.6439 26.0935L68.2016 8.56651C68.4178 7.73588 68.4187 7.73588 69.2727 7.73588C70.2736 7.73588 71.2736 7.73498 72.2745 7.73678C72.4169 7.73678 72.5583 7.74849 72.761 7.7566C72.4556 8.92597 72.1655 10.0314 71.8782 11.1377C70.4782 16.526 69.0764 21.9134 67.6872 27.3043ZM64.234 11.3737C64.1818 11.6674 64.0484 11.7557 63.7484 11.753C61.953 11.7411 60.1574 11.7396 58.3619 11.7485C57.6133 11.7503 56.9953 12.0188 56.6097 12.6962C56.3376 13.1737 56.3493 13.571 56.7439 13.9485C57.1151 14.3016 57.5385 14.6143 57.9773 14.8809C58.8421 15.4061 59.7385 15.8773 60.6106 16.3908C60.9511 16.5917 61.2718 16.8323 61.5827 17.0791C63.0439 18.2395 63.6412 19.7485 63.3259 21.5899C63.1196 22.7908 62.6881 23.9161 61.9935 24.9233C60.907 26.5007 59.3628 27.3377 57.498 27.5773C56.6772 27.6827 55.8412 27.6881 55.0115 27.6962C53.2998 27.7125 51.5881 27.7016 49.8772 27.6998C49.7232 27.6998 49.5691 27.6863 49.3556 27.6755C49.434 27.3566 49.4935 27.1007 49.561 26.8458C49.7998 25.9494 50.0592 25.0584 50.2718 24.1557C50.3592 23.7881 50.5025 23.6584 50.8971 23.6638C52.6682 23.689 54.4403 23.6827 56.2115 23.6692C56.6564 23.6666 57.1003 23.6268 57.5385 23.5503C58.07 23.4575 58.507 23.1971 58.7547 22.6818C59.1322 21.8989 59.0637 21.3215 58.3836 20.7827C57.8025 20.3215 57.1439 19.9566 56.5142 19.5584C55.67 19.0242 54.7845 18.5476 53.9818 17.9575C52.8727 17.1431 52.1205 16.0629 52.0304 14.6368C51.9556 13.4476 52.2962 12.3359 52.8655 11.3134C54.0556 9.17642 55.9718 8.12597 58.3313 7.79444C58.6989 7.74219 59.0763 7.73948 59.4493 7.73858C61.2205 7.73318 62.9926 7.73588 64.7637 7.73588H65.1998C64.9448 8.70525 64.7043 9.62237 64.461 10.5386C64.3872 10.8179 64.2836 11.0908 64.234 11.3737ZM47.9016 24.5827C47.6493 25.526 47.3899 26.4665 47.1475 27.4116C47.0926 27.626 46.9917 27.7052 46.7727 27.7034C43.952 27.6854 41.1322 27.6926 38.3124 27.6503C37.3529 27.6368 36.4349 27.3548 35.5845 26.8989C33.7286 25.9034 32.798 23.7791 33.2376 21.5575C33.6007 19.7251 34.6322 18.3152 36.0799 17.2034C38.0097 15.7206 40.1809 14.9007 42.6448 14.9431C43.6448 14.9602 44.6457 14.9314 45.6457 14.9539C45.9655 14.9611 46.098 14.8539 46.1484 14.5494C46.2295 14.0638 46.3908 13.5863 46.4241 13.0989C46.4718 12.398 46.0511 11.9287 45.361 11.8215C45.0633 11.775 44.7624 11.7509 44.461 11.7494C42.7133 11.7422 40.9655 11.7458 39.2178 11.7458H38.7322C39.0872 10.4269 39.416 9.18273 39.7709 7.94579C39.7989 7.84759 40.0169 7.74579 40.1475 7.74489C41.6664 7.73048 43.1854 7.73498 44.7043 7.73588C45.27 7.73588 45.8403 7.69984 46.4025 7.74669C48.2592 7.89984 49.7304 8.70435 50.5673 10.4269C51.1142 11.553 51.061 12.7521 50.7484 13.9341C49.8079 17.4863 48.852 21.0332 47.9016 24.5827ZM44.8061 18.9053C43.6142 18.9043 42.4205 18.8719 41.2295 18.9134C39.7772 18.9638 38.4196 20.0449 38.0646 21.3638C37.7421 22.5566 38.4097 23.5746 39.6349 23.6341C40.9079 23.6971 42.1863 23.6593 43.4628 23.6746C43.689 23.6782 43.7421 23.5476 43.7881 23.3719C44.1538 21.9872 44.525 20.6025 44.8908 19.2179C44.9151 19.1287 44.916 19.0332 44.9277 18.9395C44.8736 18.9242 44.8403 18.9053 44.8061 18.9053ZM25.107 21.435C22.4115 24.7152 19.3809 27.6377 15.8259 29.9827C13.7097 31.3782 11.4709 32.5152 8.97184 33.0539C7.20247 33.435 5.4331 33.4755 3.69977 32.8557C1.4268 32.0422 0.0628342 30.1215 0.000672067 27.7052C-0.0587874 25.344 0.706078 23.2242 1.89797 21.2368C3.35653 18.8062 5.29166 16.7971 7.49707 15.0413C10.1016 12.9665 12.9295 11.2764 16.1268 10.2962C17.1639 9.98407 18.2316 9.78472 19.3115 9.70165C20.0349 9.64309 20.8106 9.77192 21.5124 9.98453C23.1223 10.4719 23.8944 11.9809 23.4709 13.6161C23.4475 13.7062 23.4313 13.798 23.4124 13.889L23.4745 13.9269C23.7592 13.5593 24.0547 13.1989 24.3277 12.8224C25.5358 11.153 26.5899 9.40165 27.1457 7.39354C27.3466 6.66921 27.4926 5.93138 27.3673 5.18003C27.1286 3.753 26.2124 2.91156 24.8998 2.47102C23.5691 2.02417 22.2079 2.12237 20.8574 2.37102C18.2457 2.8521 15.8385 3.88723 13.5367 5.17912C12.5718 5.72057 11.6403 6.32237 10.6619 6.91606L10.3953 6.56021C10.7385 6.28633 11.0655 6.01156 11.407 5.7548C14.6043 3.34309 18.0601 1.44669 21.9772 0.489936C23.925 0.0142601 25.8944 -0.203758 27.879 0.245792C30.5259 0.844891 32.2286 2.90165 32.3935 5.61516C32.5232 7.74399 31.9493 9.72507 31.1592 11.6575C29.6872 15.253 27.561 18.4494 25.107 21.435ZM20.0709 11.7827C19.243 11.6791 18.4358 11.8215 17.6511 12.0683C14.389 13.0944 11.7827 15.08 9.59076 17.653C8.86734 18.5016 8.26283 19.4332 7.95833 20.5233C7.46283 22.2953 8.54391 23.7007 10.3637 23.6638C11.2953 23.6458 12.1754 23.3962 13.0097 23.008C16.0583 21.589 18.5556 19.453 20.7412 16.9341C21.3295 16.2566 21.7142 15.4431 21.9439 14.5656C22.3511 13.0052 21.6655 11.9818 20.0709 11.7827Z" fill="white"/>
</g>
<defs>
<clipPath id="clip0">
<rect width="100" height="33.3333" fill="white"/>
</clipPath>
</defs>
</svg>
