<svg width="32" height="28" viewBox="0 0 32 28" fill="none" xmlns="http://www.w3.org/2000/svg">
<path d="M16.05 27.28C7.72997 27.28 0.969971 20.51 0.969971 12.2C0.969971 11.69 1.38997 11.27 1.89997 11.27C2.40997 11.27 2.82997 11.69 2.82997 12.2C2.82997 19.49 8.75997 25.43 16.06 25.43C23.36 25.43 29.29 19.5 29.29 12.2C29.29 11.69 29.71 11.27 30.22 11.27C30.73 11.27 31.15 11.69 31.15 12.2C31.13 20.51 24.37 27.28 16.05 27.28Z" fill="black"/>
<path d="M28.4799 6.88007C27.9699 6.88007 27.5499 6.46007 27.5499 5.95007C27.5499 4.14007 26.0799 2.67007 24.2699 2.67007C22.4599 2.67007 20.9899 4.14007 20.9899 5.95007C20.9899 6.46007 20.5699 6.88007 20.0599 6.88007C19.5499 6.88007 19.1299 6.46007 19.1299 5.95007C19.1299 3.12007 21.4299 0.820068 24.2599 0.820068C27.0899 0.820068 29.3899 3.12007 29.3899 5.95007C29.4099 6.47007 28.9899 6.88007 28.4799 6.88007Z" fill="black"/>
<path d="M11.3099 16.94V6.11999C11.3099 4.30999 9.83989 2.83999 8.02989 2.83999C6.21989 2.83999 4.74989 4.30999 4.74989 6.11999C4.74989 6.62999 4.32989 7.04999 3.81989 7.04999C3.30989 7.04999 2.88989 6.62999 2.88989 6.11999C2.88989 3.28999 5.18989 0.98999 8.01989 0.98999C10.8499 0.98999 13.1499 3.28999 13.1499 6.11999V14.41L19.2299 12.47C19.7199 12.32 20.2399 12.59 20.3999 13.07C20.5599 13.56 20.2899 14.08 19.7999 14.24L11.3099 16.94Z" fill="black"/>
</svg>
