<svg width="27" height="23" viewBox="0 0 27 23" fill="none" xmlns="http://www.w3.org/2000/svg">
<path d="M26.01 6.41991C25.5 6.41991 25.09 6.00991 25.09 5.49991C25.09 3.70991 23.63 2.24991 21.84 2.24991C20.05 2.24991 18.59 3.70991 18.59 5.49991C18.59 6.00991 18.18 6.41991 17.67 6.41991C17.16 6.41991 16.75 6.00991 16.75 5.49991C16.75 2.68991 19.03 0.409912 21.84 0.409912C24.65 0.409912 26.93 2.68991 26.93 5.49991C26.93 6.00991 26.52 6.41991 26.01 6.41991Z" fill="black"/>
<path d="M8.97989 16.3898V5.65982C8.97989 3.86982 7.51989 2.40982 5.72989 2.40982C3.93989 2.40982 2.47989 3.86982 2.47989 5.65982C2.47989 6.16982 2.06989 6.57983 1.55989 6.57983C1.04989 6.57983 0.639893 6.16982 0.639893 5.65982C0.639893 2.84982 2.91989 0.569824 5.72989 0.569824C8.53989 0.569824 10.8199 2.84982 10.8199 5.65982V13.8698L16.8499 11.9498C17.3399 11.7998 17.8499 12.0598 18.0099 12.5498C18.1599 13.0298 17.8999 13.5498 17.4099 13.7098L8.97989 16.3898Z" fill="black"/>
<path d="M18.66 22.33C19.4442 22.33 20.08 21.6942 20.08 20.91C20.08 20.1257 19.4442 19.49 18.66 19.49C17.8757 19.49 17.24 20.1257 17.24 20.91C17.24 21.6942 17.8757 22.33 18.66 22.33Z" fill="black"/>
</svg>
