<svg width="84" height="84" viewBox="0 0 84 84" fill="none" xmlns="http://www.w3.org/2000/svg">
<path d="M46.09 19.12C48.86 14.51 51.01 8.19 52.85 0C55.96 10.15 56.9 18.06 56.87 24.69C61.64 22.5 66.71 19.05 72.19 14.87C69.62 22.35 66.62 29.09 63.33 34.57C68.64 34.82 74.92 33.79 83.36 30.52C76.57 37.53 70.09 42.67 64.24 46.1C68.86 48.87 75.17 51.02 83.36 52.86C73.21 55.97 65.3 56.91 58.67 56.88C60.85 61.65 64.31 66.72 68.49 72.2C61.01 69.63 54.27 66.63 48.79 63.34C48.54 68.65 49.57 74.93 52.84 83.37C45.83 76.58 40.69 70.1 37.26 64.25C34.49 68.86 32.34 75.18 30.5 83.37C27.39 73.22 26.45 65.31 26.48 58.68C21.71 60.86 16.64 64.32 11.16 68.5C13.73 61.02 16.73 54.28 20.02 48.8C14.72 48.55 8.44 49.58 0 52.85C6.79 45.84 13.27 40.7 19.12 37.27C14.51 34.5 8.19 32.35 0 30.51C10.15 27.4 18.06 26.46 24.69 26.49C22.51 21.72 19.05 16.65 14.87 11.17C22.35 13.75 29.09 16.74 34.57 20.03C34.82 14.72 33.79 8.44 30.52 0C37.52 6.79 42.66 13.27 46.09 19.12Z" fill="#FD5715"/>
</svg>
