<svg width="100" height="23" viewBox="0 0 100 23" fill="none" xmlns="http://www.w3.org/2000/svg">
<g clip-path="url(#clip0)">
<path d="M89.3333 2.49632C89.3339 2.34331 89.3649 2.19193 89.4245 2.05098C89.4841 1.91004 89.571 1.78232 89.6803 1.67524C89.7896 1.56817 89.9191 1.48386 90.0613 1.42721C90.2034 1.37056 90.3554 1.3427 90.5084 1.34524C90.8168 1.34524 91.1127 1.46777 91.3308 1.68589C91.5489 1.90401 91.6714 2.19984 91.6714 2.50831C91.6714 2.81677 91.5489 3.11261 91.3308 3.33072C91.1127 3.54884 90.8168 3.67138 90.5084 3.67138C90.353 3.67533 90.1984 3.64764 90.0541 3.58998C89.9097 3.53233 89.7786 3.44592 89.6687 3.33601C89.5588 3.2261 89.4724 3.09498 89.4147 2.95063C89.3571 2.80628 89.3294 2.65171 89.3333 2.49632ZM90.5084 3.47954C90.766 3.47954 91.013 3.37721 91.1951 3.19507C91.3773 3.01293 91.4796 2.76589 91.4796 2.50831C91.4796 2.25072 91.3773 2.00369 91.1951 1.82155C91.013 1.63941 90.766 1.53709 90.5084 1.53709C90.2508 1.53709 90.0038 1.63941 89.8216 1.82155C89.6395 2.00369 89.5372 2.25072 89.5372 2.50831C89.5372 2.76589 89.6395 3.01293 89.8216 3.19507C90.0038 3.37721 90.2508 3.47954 90.5084 3.47954ZM90.2686 3.19176H90.0767V1.84884H90.5803C90.8921 1.84884 91.0599 1.96874 91.0599 2.23253C91.0636 2.27867 91.0576 2.32507 91.0424 2.36878C91.0271 2.41248 91.0029 2.45253 90.9713 2.48637C90.9398 2.52021 90.9015 2.5471 90.8589 2.56533C90.8164 2.58355 90.7705 2.59272 90.7242 2.59224L91.1079 3.19176H90.8681L90.5084 2.61623H90.2686V3.19176ZM90.5084 2.42437C90.6762 2.42437 90.8441 2.40039 90.8441 2.20855C90.8441 2.0167 90.7002 2.0167 90.5563 2.0167H90.2686V2.42437H90.5084ZM13.6499 0.553873C14.1055 2.32845 14.5132 4.12701 14.8489 5.94956C14.8717 6.10593 14.8575 6.26547 14.8075 6.41539C14.7576 6.5653 14.6732 6.70143 14.5611 6.81287C14.3875 7.0092 14.1493 7.13682 13.8897 7.17258C13.7099 7.17737 13.5312 7.14344 13.3657 7.0731C13.2002 7.00276 13.0518 6.89765 12.9304 6.7649C12.1631 5.61382 11.9232 4.24692 10.964 3.21575C10.8506 3.10918 10.7094 3.03688 10.5566 3.00717C10.4038 2.97747 10.2458 2.99158 10.1007 3.04788L9.88488 3.2637L10.0527 19.8344C10.1037 20.0929 10.2318 20.3298 10.4202 20.5139C10.6086 20.698 10.8484 20.8206 11.1079 20.8656C11.3109 20.794 11.4912 20.6696 11.6303 20.5052C11.7694 20.3409 11.8622 20.1425 11.8993 19.9304L11.9472 18.9951L11.8513 10.9136C11.7074 10.3141 10.9161 10.3141 10.8201 9.73852C10.9161 9.42677 11.2758 9.21095 11.5396 9.06706C12.5947 8.61143 13.6978 8.29968 14.729 7.7721C15.0408 7.74812 15.4244 7.70016 15.7122 7.86802L15.9041 8.13181L16.024 19.7145C16.1199 20.0982 16.2398 20.6498 16.7194 20.7217C16.9352 20.8896 16.8633 21.1774 16.7674 21.3932C16.5276 21.7529 16.0719 21.7769 15.7362 21.8249H11.8513C11.5396 21.8488 11.2997 21.633 11.0839 21.4412C10.2446 22.0886 8.82972 21.8249 7.87049 21.8968C6.74339 21.7769 5.32852 22.2086 4.34531 21.5371C4.17744 21.4172 4.22541 21.1534 4.22541 21.0095C4.41725 20.6258 4.96881 20.7697 5.08871 20.3141L5.25658 19.7865L5.20862 7.19656L5.13668 3.2637C5.07594 3.16937 4.98947 3.0944 4.88748 3.04766C4.78549 3.00091 4.67224 2.98435 4.56114 2.99992C4.12948 3.04788 3.86569 3.47953 3.64987 3.79128C3.14627 4.67857 2.81054 5.66179 2.37888 6.57306C2.23364 6.87516 1.97514 7.10781 1.65946 7.22054C1.44967 7.2786 1.22766 7.2756 1.01952 7.21188C0.811378 7.14816 0.625737 7.02637 0.484397 6.86083C-0.0431806 6.21334 0.436436 5.35004 0.484397 4.65459L1.34771 0.649795C1.46761 0.457948 1.56353 0.170183 1.80334 0.122221C2.49879 -0.141568 2.66665 0.841642 3.31413 0.649795L11.9472 0.577855C12.4748 0.529894 12.7866 -0.261472 13.3861 0.122221L13.6499 0.553873ZM66.5036 0.769699L66.6954 1.03349L66.7434 3.7673L66.8633 19.6666C66.9352 20.1222 67.1031 20.5539 67.5827 20.7697C67.646 20.8682 67.6873 20.9791 67.7038 21.095C67.7204 21.2108 67.7118 21.3289 67.6786 21.4412C67.4868 21.9687 66.8873 22.0407 66.3597 22.0407L62.7386 22.0167C62.5816 22.0026 62.4295 21.9545 62.2928 21.8759C62.1562 21.7972 62.0383 21.6898 61.9472 21.5611C61.89 21.4462 61.8582 21.3203 61.8541 21.192C61.8499 21.0637 61.8735 20.936 61.9232 20.8177C62.283 20.5779 62.6906 20.338 62.7386 19.8344L62.7146 12.4244C62.6666 11.8249 62.7386 10.9376 62.6667 10.362C62.3789 11.0335 62.7146 11.9687 61.9712 12.3524C61.8179 12.3953 61.6571 12.4047 61.4999 12.3799C61.3426 12.355 61.1926 12.2966 61.0599 12.2086C60.7542 11.8806 60.5465 11.4735 60.4604 11.0335C60.2446 10.8416 59.9808 10.9855 59.765 11.0815C56.9592 13.0719 58.1822 16.9568 57.9424 19.9783C57.8945 20.5779 58.7098 20.362 58.7818 20.9136C58.7708 21.1605 58.678 21.3967 58.518 21.5851C58.2542 21.8488 57.8225 21.8249 57.5108 21.8728L53.53 21.8249C53.4001 21.7946 53.2796 21.7328 53.1793 21.645C53.0789 21.5571 53.0017 21.446 52.9544 21.3213C52.9115 21.2241 52.8956 21.1171 52.9083 21.0116C52.9209 20.9062 52.9617 20.806 53.0264 20.7217C53.2662 20.4819 53.6978 20.5299 53.7938 20.1462L53.8177 19.2349L53.7458 10.8896C53.6978 10.1942 52.6427 10.2421 52.7386 9.47474L53.2422 9.0191C54.3933 8.5155 55.5923 8.15579 56.7194 7.62821C57.1511 7.58025 57.5827 7.58025 57.8225 7.96394C57.9424 8.56347 57.7746 9.30687 57.9424 9.95436C57.9904 10.0263 58.0863 10.0023 58.1343 9.97833C58.8297 8.89919 59.741 7.6522 61.1559 7.74812C61.6834 7.79608 62.3069 7.82006 62.5947 8.32366L62.6667 8.1558L62.6187 5.03829L62.5707 5.01431C62.5938 4.67686 62.5695 4.33785 62.4988 4.00711C62.5467 3.31167 61.4436 3.28768 61.7794 2.54428C62.7866 1.36922 64.4412 1.48913 65.6163 0.577855C65.9255 0.532425 66.2407 0.600577 66.5036 0.769699Z" fill="white"/>
<path d="M38.2542 0.697546L38.3742 1.03328L38.4221 8.15558C38.7099 8.68316 39.0216 7.86781 39.3574 7.81984C40.3885 7.46013 41.5876 7.86781 42.331 8.68316C43.7698 10.2179 43.9857 12.1844 44.3454 14.1748L44.3933 14.1268C44.6092 11.8246 45.0888 9.40258 47.1751 8.15558C48.2782 7.48412 49.8849 7.55606 50.9401 8.17956C52.2351 9.33064 53.2662 10.7455 53.2183 12.5201C53.2396 12.974 53.1828 13.4283 53.0504 13.863C51.5156 14.6064 49.861 15.134 48.3022 15.8055C47.9425 16.0932 48.2542 16.5489 48.3022 16.8606C48.566 17.5081 48.9017 18.4194 49.7171 18.5393C50.1727 18.6832 50.8202 18.9709 51.2279 18.5872C51.7075 18.1556 51.3478 16.8366 52.4029 17.1724C52.6175 17.2079 52.8215 17.291 52.9999 17.4154C53.1783 17.5399 53.3267 17.7026 53.4341 17.8918C53.7219 19.1388 53.1463 20.2899 52.5708 21.2251C51.4677 22.1604 49.9569 22.3282 48.542 22.1604C45.8082 21.6088 44.825 18.7071 44.4413 16.2851C44.2255 18.4913 44.0816 21.1532 41.6595 22.0405C40.1727 22.4481 38.518 22.1604 37.4629 21.1052C37.343 20.9134 37.295 20.6256 37.0312 20.5297C36.4317 20.5537 36.4317 21.2251 36.096 21.6088C35.7123 21.8486 35.3046 22.2323 34.801 22.0645C34.6293 21.9488 34.4892 21.7922 34.3933 21.6088C33.8658 22.1844 33.1224 21.9925 32.4029 22.0405L29.5972 21.9925C29.4318 21.9738 29.2755 21.9071 29.1476 21.8006C29.0198 21.694 28.9259 21.5523 28.8778 21.393C28.8298 21.0573 29.1655 20.9134 29.4053 20.7935C29.6912 20.3534 29.8181 19.8288 29.765 19.3067C29.6925 16.872 29.4602 14.4447 29.0696 12.0405C28.9257 11.5609 28.7818 11.0093 28.3742 10.6975C28.0624 10.5776 27.8466 10.8174 27.6308 10.9853L27.3909 11.369L27.4149 19.9541C27.5348 20.3618 27.7027 20.8175 28.1583 20.9613C28.2128 21.0369 28.246 21.1258 28.2545 21.2186C28.2629 21.3114 28.2463 21.4047 28.2063 21.4889C27.6787 22.2563 26.6236 21.8726 25.8802 21.9685C24.9689 21.8486 23.53 22.3282 22.9065 21.4649C22.8629 21.3559 22.8607 21.2346 22.9005 21.1241C22.9403 21.0136 23.0192 20.9216 23.1224 20.8654C23.578 20.7455 23.6739 20.2419 23.8178 19.9062L23.7459 10.9374C23.663 10.7848 23.5422 10.6561 23.3952 10.5637C23.2482 10.4714 23.0799 10.4183 22.9065 10.4098C22.5228 10.4338 22.2111 10.7695 22.0192 11.0812C21.6116 11.8246 21.8514 12.664 21.8034 13.5273L21.8754 19.9781C21.8514 20.5297 22.4029 20.6975 22.6427 21.0333C22.6642 21.1878 22.6364 21.3452 22.5632 21.483C22.49 21.6208 22.3752 21.732 22.2351 21.8007C20.7003 22.0884 19.3814 21.8726 17.8226 21.9206C17.4629 21.8486 17.0552 21.8246 16.8634 21.4649C16.7914 21.321 16.7435 21.0573 16.9113 20.9374C17.0891 20.867 17.2485 20.7569 17.3773 20.6156C17.5061 20.4743 17.601 20.3055 17.6547 20.122L17.7507 19.6424L17.6547 11.0333C17.5588 10.3378 16.5037 10.4338 16.6955 9.69035C17.1991 9.09083 18.0144 8.97092 18.6859 8.65917C19.3132 8.45312 19.9227 8.19649 20.5085 7.89179C20.9641 7.86781 21.5156 7.79587 21.7075 8.2515C21.7075 8.58723 21.5876 9.04287 21.9233 9.21074C22.4509 9.16277 22.5228 8.53927 22.9545 8.27549C23.7938 7.58004 25.2087 7.72393 26.12 8.15558C26.5756 8.41937 26.7195 8.85102 27.0552 9.21074C27.6547 9.21074 27.7267 8.46733 28.1583 8.20354C28.9737 7.67596 30.2926 7.84383 31.06 8.32344C32.4749 9.47452 32.4749 11.321 32.8825 12.9278C33.268 15.1294 33.4685 17.3594 33.4821 19.5944C33.554 20.0501 33.53 20.7695 34.1056 20.9134L34.2255 21.0333L34.3214 20.8414L34.1535 4.34263C34.1295 3.71912 33.7219 3.21553 33.3142 2.80786C33.2849 2.71339 33.2805 2.61294 33.3016 2.51629C33.3226 2.41964 33.3682 2.33008 33.4341 2.2563C34.3454 1.39299 35.5924 1.32104 36.6475 0.745504C37.1272 0.33783 37.9185 0.265892 38.2542 0.697546ZM47.4869 10.194C47.1991 11.5129 47.295 12.664 47.5348 13.9589C47.6307 14.1268 47.6787 14.4146 47.9425 14.4146C48.4461 14.1268 49.0456 14.0069 49.4533 13.5033C50.2926 12.1844 49.3094 10.7695 48.6859 9.61841C48.2063 9.28267 47.6547 9.71433 47.4869 10.194ZM39.7171 9.73831C39.4639 9.8326 39.2574 10.0219 39.1415 10.2659C38.2782 12.1124 38.2063 14.1268 38.4221 16.2371C38.614 17.1244 38.6859 18.0836 39.3574 18.7551C39.5492 18.875 39.813 18.7071 40.0049 18.5633C41.5396 16.2131 41.084 12.688 40.2207 10.146C40.1008 10.0501 40.0288 9.69035 39.7171 9.73831ZM98.8058 0.793468L98.8538 1.6328L99.0216 18.9469C99.0271 19.0474 99.0617 19.144 99.1214 19.225C99.181 19.3059 99.2631 19.3677 99.3574 19.4026C99.5492 19.4745 99.861 19.4985 99.8849 19.7623C99.9092 19.9041 99.9047 20.0494 99.8717 20.1894C99.8388 20.3295 99.778 20.4615 99.6931 20.5776C98.6859 21.1292 97.6307 21.4649 96.5756 21.8486C96.072 21.9206 95.5684 22.3043 95.0648 21.9685C94.777 21.7527 95.2566 21.321 94.825 21.2011C94.3694 21.4889 94.0576 22.0405 93.554 22.1844C92.4029 22.4002 91.2518 21.9206 90.4125 21.1532C88.59 19.0668 88.7099 15.7815 89.1175 13.0716C89.2926 11.2514 90.0494 9.53595 91.2758 8.17956C91.5762 7.90661 91.9377 7.70971 92.3299 7.60539C92.7222 7.50108 93.1337 7.49238 93.53 7.58004C93.9617 7.65198 94.2255 8.0117 94.6092 8.2515C94.7051 8.22752 94.801 8.17956 94.801 8.08363L94.777 4.03088C94.6571 3.26349 92.9785 3.09562 93.8418 2.08843C94.1775 1.89658 94.6571 2.04047 95.0168 1.8726C96.072 1.27308 97.247 0.913375 98.3262 0.361816C98.4407 0.376005 98.5481 0.425008 98.6339 0.502205C98.7197 0.579401 98.7797 0.681068 98.8058 0.793468ZM93.506 9.78627C93.1703 9.8822 93.0984 10.2419 92.9785 10.4817C92.5228 12.1364 92.1631 14.0069 92.4269 15.8294C92.6667 16.8606 92.7147 17.9877 93.602 18.7791C93.7014 18.8429 93.8216 18.8661 93.9377 18.8438C94.0537 18.8215 94.1568 18.7554 94.2255 18.6592C95.3286 16.5968 95.1847 13.911 94.6571 11.6088C94.3933 10.9374 94.2734 10.0501 93.506 9.78627Z" fill="white"/>
<path d="M86.9832 9.30704C87.414 10.0042 87.7071 10.7776 87.8465 11.5852C88.3319 14.2253 88.6602 16.8918 88.8297 19.5708C88.837 19.9032 88.9366 20.2271 89.1175 20.5061C89.3333 20.6979 89.669 20.7219 89.669 21.0576C89.6643 21.2012 89.6189 21.3404 89.5383 21.4592C89.4577 21.5781 89.345 21.6716 89.2134 21.7291C87.8705 21.9689 86.3357 21.849 84.9448 21.849C84.7865 21.8309 84.6353 21.773 84.5053 21.6808C84.3753 21.5885 84.2708 21.4649 84.2014 21.3214C84.1534 21.1056 84.1774 20.7938 84.4412 20.6979C84.9928 20.4821 84.9688 19.8586 85.0647 19.355C85.1127 16.6931 84.5132 14.0073 83.7697 11.5133C83.6561 11.1873 83.4366 10.9087 83.1462 10.7219C83.034 10.6863 82.9129 10.6907 82.8035 10.7344C82.6942 10.7781 82.6034 10.8585 82.5467 10.9617L82.4748 11.2974L82.5947 19.9305C82.5707 20.5301 83.1942 20.626 83.3861 21.0816C83.434 21.3934 83.1462 21.6332 82.9304 21.7771C81.6115 22.0169 79.9568 21.897 78.6139 21.873C78.4543 21.8478 78.3041 21.7814 78.1779 21.6805C78.0518 21.5796 77.9541 21.4476 77.8944 21.2974C77.7745 21.3934 77.5587 21.6332 77.3908 21.7771C76.8873 22.1847 76.2637 22.2087 75.6642 22.1847C74.9688 22.0409 74.4892 21.5612 73.9376 21.0816H73.6019C72.5707 22.0888 71.0359 22.6644 69.669 22.0408C68.5179 21.6811 67.4628 20.602 67.3189 19.379C67.0311 17.7483 67.1271 15.9018 68.494 14.8466C69.5731 13.6715 70.964 13.2399 72.3309 12.7603C72.6187 12.1608 72.5707 11.3454 72.3789 10.7219C72.187 10.3382 72.0671 9.90656 71.6115 9.71471L70.3405 9.59481C70.2206 9.61879 70.0527 9.66675 70.0287 9.81063C70.1486 10.1464 70.6043 10.1703 70.7002 10.578C70.8201 11.1296 70.8201 11.873 70.3645 12.3046C69.717 12.7123 68.6858 12.9042 68.0143 12.4006C67.4388 11.9449 67.2949 11.2974 67.2949 10.578C67.2709 9.45092 68.2781 8.63557 69.2134 8.25188C70.5563 7.79625 71.9712 7.86819 73.41 8.03606C73.8831 8.0972 74.3331 8.27642 74.7187 8.55721C75.1042 8.838 75.4129 9.21132 75.6163 9.64277C76.1199 10.9857 76.2638 12.4725 76.4316 13.9353C76.5515 15.614 76.6235 17.3886 76.7194 19.0672C76.7296 19.16 76.7637 19.2485 76.8183 19.3242C76.8729 19.3998 76.9463 19.46 77.0311 19.4989C77.3189 19.4509 77.7266 19.4989 77.7506 19.8586C77.8715 20.1559 77.9366 20.4729 77.9424 20.7938C78.0956 20.7686 78.2399 20.7047 78.3616 20.6082C78.4833 20.5117 78.5784 20.3858 78.6379 20.2423L78.8057 19.6907L78.7098 10.9617C78.6618 10.2423 76.8393 9.93054 78.1103 9.21111C79.1414 8.70752 80.2446 8.32382 81.2518 7.77227C81.5875 7.7243 81.9952 7.7243 82.259 7.96411C82.4508 8.2279 82.3069 8.58761 82.5467 8.82742C82.8825 8.70752 82.8825 8.32382 83.1462 8.108C83.3673 7.88451 83.6429 7.72267 83.9458 7.63854C84.2486 7.55441 84.5682 7.55091 84.8729 7.62838C85.7562 7.91418 86.506 8.51059 86.9832 9.30704ZM71.8273 14.7027C70.4844 15.4701 70.8681 17.1488 70.8201 18.3958C70.94 18.8994 71.1079 19.5468 71.6834 19.7387C71.8997 19.8102 72.1326 19.8141 72.3511 19.7498C72.5696 19.6856 72.7633 19.5562 72.9064 19.379C72.9161 17.7936 72.8441 16.2088 72.6906 14.6308C72.5467 14.2711 72.0671 14.4869 71.8273 14.7027Z" fill="white"/>
</g>
<defs>
<clipPath id="clip0">
<rect width="100" height="22.3022" fill="white"/>
</clipPath>
</defs>
</svg>
