<svg width="83" height="41" viewBox="0 0 83 41" fill="none" xmlns="http://www.w3.org/2000/svg">
<path d="M76.0729 29.5181C75.9276 29.069 75.5967 28.919 75.1734 29.1195C74.9626 29.2309 74.754 29.3331 74.5456 29.4296L75.8248 33.0643C75.9315 33.414 75.6892 33.7622 75.2643 33.9622C72.1499 35.7585 68.1226 36.8567 64.4287 36.8567C60.0832 36.8567 56.5007 35.5728 53.914 33.2748C53.9029 33.2645 53.8921 33.2545 53.8811 33.2448C54.6008 34.5516 55.5135 35.6991 56.6037 36.6664C59.191 38.9647 62.7735 40.2486 67.119 40.2486C70.8123 40.2486 74.8402 39.1502 77.9546 37.3536C78.3795 37.1536 78.621 36.8054 78.5151 36.4557L76.0729 29.5181Z" fill="white"/>
<path d="M81.6561 7.20984C80.7819 6.6228 79.7915 6.11038 78.7257 5.68652L75.1595 11.6539C74.9046 12.103 74.537 12.2531 74.1617 12.0531C72.4437 11.0054 70.691 10.6554 68.5446 10.6554C64.0522 10.6554 60.654 13.9501 60.0472 18.8897C59.622 22.351 60.767 25.0022 63.0342 26.2809C62.6647 25.1302 62.5528 23.7821 62.7367 22.2817C63.3437 17.3417 66.7422 14.0473 71.2347 14.0473C73.3802 14.0473 75.1338 14.3971 76.8518 15.4447C77.227 15.6447 77.5944 15.4952 77.8495 15.0456L81.9951 8.1088C82.1885 7.75826 82.0316 7.41008 81.6561 7.20984Z" fill="white"/>
<path d="M49.2933 22.3355C49.2629 21.2337 49.3204 20.0838 49.4663 18.8897C49.4715 18.8477 49.4773 18.8059 49.4833 18.7639C45.3499 15.681 39.5018 15.0059 39.7464 13.0101C39.8941 11.81 41.0797 11.045 42.7712 11.045C44.6622 11.2098 47.6323 12.3558 50.119 13.8838C50.2604 13.9787 50.4009 14.0213 50.5342 14.0118C51.3688 10.865 52.9972 8.24227 55.2035 6.34003L55.5382 5.75167C55.7353 5.47891 55.6255 5.04165 55.2219 4.76888C52.0717 2.42229 47.354 0.839844 43.4786 0.839844C39.4353 0.839844 35.9096 1.99501 33.2553 4.02601L33.4321 2.58652C33.4931 2.09487 33.1649 1.65839 32.6188 1.65839H23.2311C22.74 1.65839 22.2499 2.09487 22.1897 2.58652L19.2677 26.3823C18.9665 28.8379 17.3662 30.3118 14.9647 30.3118C12.5637 30.3118 11.3252 28.8379 11.6337 26.3271L14.549 2.58652C14.6092 2.09487 14.2802 1.65839 13.7344 1.65839H4.3472C3.85554 1.65839 3.36546 2.09487 3.30476 2.58652L0.510394 25.3454C-0.566728 35.0058 3.99534 40.0814 13.7649 40.0814C18.8966 40.0814 22.9292 38.7115 25.7874 36.0409C25.8437 36.2062 25.969 36.3765 26.1608 36.5339C28.6217 38.7168 33.2503 40.136 37.8347 40.136C44.7436 40.136 50.1742 36.8537 52.3839 31.6531C50.4756 29.2371 49.3911 26.068 49.2933 22.3355ZM41.676 27.9647C41.5225 29.2205 40.2751 30.0394 38.5295 30.0394C36.4748 29.8751 33.6003 28.8382 31.2642 27.4189C30.8611 27.1462 30.4593 27.3104 30.2286 27.8562L30.1845 27.9337C30.3747 27.1112 30.5263 26.2485 30.6372 25.3454L31.1144 21.4594C35.2025 25.1756 41.9398 25.8176 41.676 27.9647Z" fill="white"/>
</svg>
