<svg width="100" height="31" viewBox="0 0 100 31" fill="none" xmlns="http://www.w3.org/2000/svg">
<path d="M94.5836 11.048C93.9291 11.048 93.2964 11.3708 93.2964 12.0361C93.2964 12.7282 93.9073 12.9565 95.7073 13.5326C97.6964 14.1783 99.9873 15.0737 99.9873 17.6975C99.9873 20.2981 97.72 22.369 94.5146 22.369C91.5437 22.369 89.4618 20.5514 88.5018 18.7338L91.5909 17.1214C92.2927 18.3432 93.3455 19.0335 94.5382 19.0335C95.2636 19.0335 96.1746 18.757 96.1746 17.9062C96.1746 16.8699 94.8418 16.7076 92.9 15.9941C91.7782 15.5803 89.5073 14.6367 89.5073 12.0593C89.5073 9.52828 91.7073 7.73389 94.4673 7.73389C96.5491 7.73389 98.2346 8.77021 99.2873 10.1276L96.9927 12.1984C96.3164 11.4618 95.3327 11.048 94.5836 11.048ZM84.2382 22.1389H80.4018V11.2549H78.1327V7.89442H80.4018V6.58342C80.4018 3.8205 82.74 1.56592 85.6182 1.56592H87.5837V5.13328H85.9927C84.8927 5.13328 84.2382 5.82357 84.2382 6.81351V7.89442H87.84V11.2549H84.2382V22.1389ZM69.5018 22.369C68.5231 22.3695 67.554 22.1804 66.6499 21.8127C65.7458 21.4449 64.9247 20.9057 64.2335 20.226C63.5423 19.5462 62.9946 18.7393 62.622 17.8515C62.2493 16.9637 62.059 16.0125 62.0618 15.0523C62.0618 13.117 62.8455 11.261 64.2404 9.89255C65.6354 8.52409 67.5273 7.75529 69.5 7.75529C71.4727 7.75529 73.3647 8.52409 74.7596 9.89255C76.1545 11.261 76.9382 13.117 76.9382 15.0523C76.9411 16.0122 76.7508 16.9631 76.3784 17.8507C76.006 18.7383 75.4587 19.545 74.7679 20.2247C74.077 20.9044 73.2563 21.4437 72.3527 21.8116C71.449 22.1796 70.4802 22.369 69.5018 22.369ZM69.5018 11.4618C67.5127 11.4618 65.8982 13.0956 65.8982 15.0737C65.8982 17.0536 67.5127 18.6411 69.5018 18.6411C71.4891 18.6411 73.1018 17.0536 73.1018 15.0737C73.1018 13.0956 71.4891 11.4618 69.5018 11.4618ZM73.0327 6.19279C72.7496 6.19303 72.4692 6.13837 72.2077 6.03197C71.9461 5.92556 71.7086 5.76951 71.5087 5.57276C71.3088 5.37602 71.1506 5.14246 71.043 4.88553C70.9354 4.62859 70.8806 4.35333 70.8818 4.07556C70.8818 3.51569 71.1085 2.97875 71.5121 2.58287C71.9156 2.18698 72.463 1.96458 73.0337 1.96458C73.6043 1.96458 74.1517 2.18698 74.5552 2.58287C74.9588 2.97875 75.1855 3.51569 75.1855 4.07556C75.1855 5.24922 74.2255 6.19279 73.0327 6.19279ZM68.1218 4.07556C68.1218 5.24922 67.1618 6.19279 65.9691 6.19279C65.6859 6.19303 65.4054 6.13838 65.1437 6.032C64.8821 5.92562 64.6445 5.76959 64.4444 5.57287C64.2444 5.37615 64.086 5.14261 63.9782 4.88566C63.8704 4.62871 63.8154 4.35341 63.8164 4.07556C63.8164 3.51546 64.0432 2.97829 64.4469 2.58223C64.8506 2.18618 65.3982 1.96368 65.9691 1.96368C66.54 1.96368 67.0876 2.18618 67.4913 2.58223C67.895 2.97829 68.1218 3.51546 68.1218 4.07556ZM49 9.39093V7.89442H52.7437V20.6656C52.7437 25.3834 49.4 28.5602 44.9782 28.5602C42.7091 28.5602 40.9309 27.7325 39.6218 26.5571L42.0782 23.9797C42.7327 24.4648 43.7382 25.016 44.9782 25.016C46.9891 25.016 49 23.5444 49 21.2881V20.621C47.9255 21.6805 46.5673 22.278 44.8837 22.278C41.1182 22.278 37.8891 19.0567 37.8891 15.0274C37.8891 11.0016 41.14 7.73389 44.8837 7.73389C46.5673 7.73389 47.9255 8.35461 49 9.39093ZM41.7255 15.0523C41.7255 17.009 43.3164 18.5501 45.3764 18.5501C47.34 18.5501 49.0255 17.1464 49.0255 15.0523C49.0313 14.5801 48.941 14.1115 48.7598 13.674C48.5786 13.2365 48.3102 12.8389 47.9703 12.5045C47.6305 12.1701 47.226 11.9056 46.7805 11.7265C46.3351 11.5475 45.8577 11.4575 45.3764 11.4618C44.896 11.4611 44.4202 11.5535 43.9763 11.7338C43.5324 11.9141 43.1292 12.1787 42.79 12.5124C42.4507 12.8461 42.182 13.2422 41.9993 13.6781C41.8166 14.114 41.7236 14.581 41.7255 15.0523ZM31.6909 7.89442H35.4346V22.1389H31.6909V20.7137C30.5927 21.7715 29.2818 22.369 27.5982 22.369C23.6909 22.369 20.58 19.1013 20.58 15.0523C20.58 11.0016 23.6909 7.73389 27.5746 7.73389C29.2818 7.73389 30.5927 8.35461 31.6909 9.39093V7.89442ZM28.0655 11.4618C27.5835 11.4618 27.1063 11.5554 26.6614 11.7373C26.2166 11.9192 25.8128 12.1858 25.4735 12.5216C25.1343 12.8575 24.8662 13.2559 24.6847 13.6939C24.5033 14.132 24.4121 14.6009 24.4164 15.0737C24.4164 17.0536 26.0073 18.6411 28.0655 18.6411C30.0309 18.6411 31.7146 17.1696 31.7146 15.0737C31.7231 14.5998 31.6348 14.129 31.4548 13.6891C31.2748 13.2492 31.0069 12.8492 30.6668 12.5125C30.3267 12.1759 29.9213 11.9094 29.4745 11.729C29.0277 11.5485 28.5486 11.4577 28.0655 11.4618ZM14.1709 13.67H5.74911V22.1389H1.79639V1.56592H5.74911V9.8975H14.1709V1.56592H18.1237V22.1389H14.1709V13.67ZM59.6073 22.1389H55.7709V1.56592H59.6073V22.1389Z" fill="white"/>
</svg>
