<svg width="100" height="47" viewBox="0 0 100 47" fill="none" xmlns="http://www.w3.org/2000/svg">
<path d="M35.25 14H32.35V2.55H28.15V0.05H39.45V2.55H35.25V14ZM43.4 7.75V14H40.5V0.05H43.4V5.35H48.85V0.05H51.75V14H48.85V7.75H43.4ZM63 2.5H55.7V5.45H62.15V7.9H55.7V11.55H63V14H53V0.05H63V2.5ZM8.65 16.15H11.35V30.05H8.45L2.75 20.15H2.7V30.05H0V16.15H3.05L8.6 25.8H8.65V16.15ZM19.35 15.75C21.2 15.75 26.05 16.55 26.05 23.05C26.05 29.55 21.2 30.35 19.35 30.35C17.5 30.35 12.65 29.55 12.65 23.05C12.65 16.55 17.5 15.75 19.35 15.75ZM19.35 27.95C20.9 27.95 23.1 27 23.1 23.1C23.1 19.2 20.9 18.25 19.35 18.25C17.8 18.25 15.55 19.2 15.55 23.1C15.55 27 17.8 27.95 19.35 27.95ZM46.55 30.05H43.65V18.6H39.4V16.15H50.75V18.6H46.55V30.05ZM54.7 23.8V30.05H51.8V16.15H54.7V21.4H60.1V16.15H63V30.05H60.1V23.8H54.7ZM27.25 16.15H34.3C38 16.15 38.7 18.9 38.7 20.1C38.7 21.65 37.9 22.95 36.55 23.4C37.7 23.9 38.3 24.35 38.3 26.95C38.3 29 38.3 29.5 38.9 29.7V30.05H35.7C35.5 29.4 35.4 28.7 35.4 27.25C35.4 25.35 35.3 24.6 33.15 24.6H30.15V30.05H27.3L27.25 16.15ZM33.5 22.25C35 22.25 35.75 21.7 35.75 20.35C35.75 19.6 35.4 18.55 33.7 18.55H30.1V22.25H33.5ZM20.5 46.55H17.55V32.25H27.7V34.8H20.5V38H26.8V40.55H20.5V46.55ZM29.05 46.55H25.9L31 32.25H34.45L39.5 46.55H36.25L35.35 43.6H30L29.05 46.55ZM30.8 41.15H34.45L32.7 35.5H32.65L30.8 41.15ZM48.6 37C48.35 36.15 47.9 34.55 45.45 34.55C44 34.55 41.9 35.5 41.9 39.55C41.9 42.1 42.9 44.4 45.45 44.4C47.1 44.4 48.25 43.45 48.6 41.7H51.6C51 44.8 49 46.95 45.4 46.95C41.6 46.95 38.9 44.4 38.9 39.45C38.9 34.45 41.8 31.9 45.45 31.9C49.7 31.9 51.45 34.85 51.6 36.95H48.6V37ZM63.05 34.8H55.55V37.8H62.2V40.3H55.55V44H63.05V46.55H52.8V32.25H63.05V34.8ZM12.15 39.3C14.25 39.3 16 40.95 16 43.15C16 45.35 14.25 47 12.15 47C10.05 47 8.25 45.35 8.25 43.15C8.25 40.95 10.05 39.3 12.15 39.3ZM12.15 46.45C13.95 46.45 15.3 45.05 15.3 43.15C15.3 41.3 13.9 39.9 12.15 39.9C10.35 39.9 8.95 41.3 8.95 43.15C8.95 45 10.35 46.45 12.15 46.45ZM10.65 40.9H12.4C13.45 40.9 14 41.3 14 42.2C14 43 13.5 43.35 12.8 43.45L14.1 45.45H13.35L12.1 43.5H11.35V45.45H10.65V40.9ZM11.35 42.9H12.1C12.7 42.9 13.3 42.85 13.3 42.15C13.3 41.55 12.8 41.45 12.3 41.45H11.35V42.9ZM72.55 45.65V38.3C72.55 35 69.85 32.3 66.55 32.3H65.9V46.6H72.55V45.65ZM100 45.65V33.45C100 15 85 0 66.55 0H66.2H66.25H65.9V14H66.85C77.7 14.15 86.55 23 86.7 33.85V46.5H100V45.65Z" fill="white"/>
<path d="M84.55 46.1499V34.0499C84.5 24.3999 76.8 16.5499 67.25 16.1499H66.15H66.2H65.85V30.0999H66.5C71 30.0999 74.6 33.7499 74.6 38.1999V46.4999H84.55V46.1499Z" fill="white"/>
</svg>
