<svg width="80" height="48" viewBox="0 0 80 48" fill="none" xmlns="http://www.w3.org/2000/svg">
<path d="M65.12 24C73.84 20.16 79.6 14.4 79.84 7.99998C79.84 7.99998 77.52 6.23998 70.08 3.43998C63.52 1.03998 58.56 0.47998 58.56 0.47998V14.72C58.56 16.88 57.68 19.04 56.08 20.96C51.12 19.76 45.68 19.12 40 19.12C34.24 19.12 28.8 19.76 23.84 20.96C22.24 19.04 21.36 16.88 21.36 14.72V0.47998C21.36 0.47998 16.4 1.03998 9.84003 3.43998C2.40003 6.23998 0.160034 7.99998 0.160034 7.99998C0.480034 14.4 6.16003 20.16 14.96 24C6.16003 27.84 0.480034 33.6 0.160034 40C0.160034 40 2.48003 41.76 9.92003 44.56C16.48 46.96 21.44 47.52 21.44 47.52V33.28C21.44 31.12 22.32 28.96 23.92 27.04C28.88 28.24 34.32 28.88 40 28.88C45.76 28.88 51.2 28.24 56.16 27.04C57.76 28.96 58.64 31.12 58.64 33.28V47.52C58.64 47.52 63.6 46.96 70.16 44.56C77.6 41.84 79.84 40 79.84 40C79.52 33.6 73.84 27.84 65.12 24ZM40 27.2H39.84C34.64 27.2 30.48 25.92 27.36 24C30.48 22.08 34.64 20.8 39.84 20.8H40.16C45.36 20.8 49.52 22.08 52.64 24C49.52 25.92 45.36 27.2 40.16 27.2H40Z" fill="white"/>
</svg>
